<svg width="32" height="33" viewBox="0 0 32 33" fill="none" xmlns="http://www.w3.org/2000/svg">
<path d="M16 4.16279C18.32 4.16279 20.2 6.04279 20.2 8.36279C20.2 10.6828 18.32 12.5628 16 12.5628C13.68 12.5628 11.8 10.6828 11.8 8.36279C11.8 6.04279 13.68 4.16279 16 4.16279ZM16 22.1628C21.94 22.1628 28.2 25.0828 28.2 26.3628V28.5628H3.8V26.3628C3.8 25.0828 10.06 22.1628 16 22.1628ZM16 0.362793C11.58 0.362793 8 3.94279 8 8.36279C8 12.7828 11.58 16.3628 16 16.3628C20.42 16.3628 24 12.7828 24 8.36279C24 3.94279 20.42 0.362793 16 0.362793ZM16 18.3628C10.66 18.3628 0 21.0428 0 26.3628V32.3628H32V26.3628C32 21.0428 21.34 18.3628 16 18.3628Z" fill="#666666"/>
</svg>
