<svg width="24" height="24" viewBox="0 0 24 24" fill="none" xmlns="http://www.w3.org/2000/svg">
<path d="M11.3685 22C9.85273 22 8.56759 21.4667 7.51311 20.4C6.45863 19.3333 5.9314 18.0333 5.9314 16.5V6C5.9314 4.9 6.31859 3.95833 7.09297 3.175C7.86735 2.39167 8.79825 2 9.88568 2C10.9731 2 11.904 2.39167 12.6784 3.175C13.4528 3.95833 13.84 4.9 13.84 6V15.5C13.84 16.2 13.6011 16.7917 13.1233 17.275C12.6454 17.7583 12.0605 18 11.3685 18C10.6765 18 10.0916 17.7583 9.61382 17.275C9.13602 16.7917 8.89711 16.2 8.89711 15.5V6H10.38V15.5C10.38 15.7833 10.4747 16.0208 10.6642 16.2125C10.8537 16.4042 11.0884 16.5 11.3685 16.5C11.6486 16.5 11.8834 16.4042 12.0729 16.2125C12.2624 16.0208 12.3571 15.7833 12.3571 15.5V6C12.3571 5.3 12.1182 4.70833 11.6404 4.225C11.1626 3.74167 10.5777 3.5 9.88568 3.5C9.19368 3.5 8.60878 3.74167 8.13097 4.225C7.65316 4.70833 7.41425 5.3 7.41425 6V16.5C7.41425 17.6 7.80144 18.5417 8.57582 19.325C9.35021 20.1083 10.2811 20.5 11.3685 20.5C12.456 20.5 13.3869 20.1083 14.1613 19.325C14.9356 18.5417 15.3228 17.6 15.3228 16.5V6H16.8057V16.5C16.8057 18.0333 16.2784 19.3333 15.224 20.4C14.1695 21.4667 12.8843 22 11.3685 22Z" fill="#1D1B20"/>
</svg>
