<svg width="31" height="30" viewBox="0 0 31 30" fill="none" xmlns="http://www.w3.org/2000/svg">
<path d="M15.6108 18.6688L19.673 22.805C20.6432 23.7942 22.2217 23.794 23.1925 22.8052C24.1582 21.8215 24.1585 20.2299 23.1925 19.2467C23.1924 19.2467 23.1924 19.2466 23.1923 19.2466L19.1179 15.0965L22.8731 11.2716C23.84 10.2877 23.8398 8.69684 22.8735 7.71236C21.9033 6.72311 20.3248 6.72337 19.354 7.71218L15.6108 11.5249L11.6673 7.50747L11.6673 7.50743C10.6964 6.51853 9.11806 6.51853 8.14718 7.50743L8.14684 7.50779C7.18232 8.49217 7.18207 10.0826 8.14701 11.0665L8.14721 11.0667L12.1043 15.0965L7.82955 19.4507C6.86316 20.435 6.86279 22.0258 7.82938 23.0097C8.79946 23.9988 10.3779 23.9989 11.3481 23.0099C11.3481 23.0099 11.3482 23.0098 11.3483 23.0097L15.6108 18.6688ZM1.28418 14.9996C1.28418 6.98263 7.6617 0.5 15.5103 0.5C23.3588 0.5 29.7371 6.98267 29.7371 14.9996C29.7371 23.0166 23.3588 29.5 15.5103 29.5C7.66174 29.5 1.28418 23.0166 1.28418 14.9996Z" fill="#F4D2A0" stroke="#F4D2A0"/>
</svg>
