<svg width="47" height="44" viewBox="0 0 47 44" fill="none" xmlns="http://www.w3.org/2000/svg">
<path d="M32.0782 25.6639L32.0864 25.6569L32.0944 25.6496C32.6516 25.1342 32.9508 24.4954 32.9558 23.7559C32.9608 23.0165 32.6704 22.3753 32.1201 21.8554L25.0926 15.2156C24.5463 14.6994 23.8903 14.431 23.1465 14.428C22.4027 14.4249 21.7432 14.688 21.1898 15.1998L14.0145 21.8357C13.4572 22.3511 13.1627 22.9866 13.1822 23.7193C13.2014 24.4389 13.5036 25.0633 14.0466 25.5764L14.0545 25.5838L14.0626 25.5908C14.6074 26.0626 15.2525 26.3127 15.9783 26.3368C16.7271 26.3618 17.3925 26.1073 17.9495 25.5922L23.103 20.826L28.1915 25.6337C28.7117 26.1252 29.3632 26.3645 30.1092 26.3675C30.8553 26.3705 31.52 26.1371 32.0782 25.6639ZM22.9551 42.5923C19.834 42.5796 16.9116 42.0145 14.1834 40.8999C11.446 39.7816 9.07528 38.2723 7.06597 36.3738C5.05686 34.4756 3.4711 32.2468 2.30762 29.6839C1.14877 27.1312 0.578252 24.4057 0.597993 21.5015C0.617734 18.5974 1.22528 15.8766 2.41877 13.3334C3.61702 10.7801 5.23299 8.5644 7.26779 6.68253C9.3028 4.80048 11.6939 3.31051 14.4464 2.21444C17.1896 1.12208 20.1195 0.58062 23.2406 0.593279C26.3616 0.605939 29.284 1.17113 32.0122 2.28569C34.7496 3.40403 37.1203 4.91332 39.1297 6.81177C41.1388 8.71003 42.7245 10.9388 43.888 13.5016C45.0468 16.0543 45.6174 18.7799 45.5976 21.6841C45.5779 24.5882 44.9703 27.309 43.7769 29.8522C42.5786 32.4055 40.9626 34.6212 38.9278 36.5031C36.8928 38.3851 34.5017 39.8751 31.7492 40.9711C29.006 42.0635 26.0761 42.605 22.9551 42.5923Z" fill="#F8E1C0" stroke="#F8E1C0"/>
</svg>
