<svg width="30" height="30" viewBox="0 0 30 30" fill="none" xmlns="http://www.w3.org/2000/svg">
<path fill-rule="evenodd" clip-rule="evenodd" d="M19.4003 22.0621L26.7959 29.4507C27.529 30.1831 28.7199 30.1831 29.4502 29.4507C30.1833 28.7183 30.1833 27.5313 29.4502 26.7989L22.0574 19.4158C23.5461 17.3954 24.4253 14.9007 24.4253 12.2012C24.4253 5.46641 18.9537 0 12.2126 0C5.47153 0 0 5.46641 0 12.2012C0 18.936 5.47153 24.4024 12.2126 24.4024C14.8978 24.4024 17.3836 23.5325 19.4003 22.0621ZM12.2126 3.74904C16.8808 3.74904 20.6699 7.53736 20.6699 12.2012C20.6699 16.865 16.8808 20.6506 12.2126 20.6506C7.54441 20.6506 3.75255 16.865 3.75255 12.2012C3.75255 7.53736 7.54441 3.74904 12.2126 3.74904Z" fill="#E8AF59"/>
</svg>
