<svg width="20" height="20" viewBox="0 0 20 20" fill="none" xmlns="http://www.w3.org/2000/svg">
<path d="M12.9857 8.36355L12.0568 12.3605L6.83032 11.6353L7.75917 7.6395L12.9857 8.36355ZM19.2596 9.23312L19.816 6.83565L16.6798 6.40028L17.7987 1.59362L14.6625 1.15825L13.5436 5.96609L8.31709 5.24203L9.43597 0.434196L6.29977 0L5.18089 4.80667L2.04469 4.37247L1.48677 6.76993L4.62297 7.20413L3.69412 11.2011L0.557919 10.7657L0 13.1643L3.1362 13.5985L2.01732 18.4064L5.15353 18.8406L6.2724 14.0339L11.4989 14.758L10.3815 19.5646L13.5177 20L14.6351 15.1922L17.7713 15.6275L18.3292 13.2289L15.193 12.7947L16.1219 8.79892L19.2596 9.23312Z" fill="#D2D0D0"/>
<path d="M12.9857 8.36355L12.0568 12.3605L6.83032 11.6353L7.75917 7.6395L12.9857 8.36355ZM19.2596 9.23312L19.816 6.83565L16.6798 6.40028L17.7987 1.59362L14.6625 1.15825L13.5436 5.96609L8.31709 5.24203L9.43597 0.434196L6.29977 0L5.18089 4.80667L2.04469 4.37247L1.48677 6.76993L4.62297 7.20413L3.69412 11.2011L0.557919 10.7657L0 13.1643L3.1362 13.5985L2.01732 18.4064L5.15353 18.8406L6.2724 14.0339L11.4989 14.758L10.3815 19.5646L13.5177 20L14.6351 15.1922L17.7713 15.6275L18.3292 13.2289L15.193 12.7947L16.1219 8.79892L19.2596 9.23312Z" stroke="#D2D0D0"/>
</svg>
